# xmcd
# Track frame offsets:
# 150
# 12670
# 26463
# 38375
# 51716
# 63740
# 73705
# 86493
# 99932
# 114306
# 125627
# 137290
# 147276
# 159224
#
# Disc length: 2252 seconds
# Revision: 0
# Processed by: cddbd v1.5.1PL2 Copyright (c) Steve Scherf et al.
# Submitted via: VisiTrax 2.10.0.248 - For more info visit www.synapsa.com
#
DISCID=b908ca0e
DTITLE=Various Artist - K-Tel Presents Country Love Disc 1
DYEAR=2005
DGENRE=Country
TTITLE0=Charlie RIch - Behind Closed Doors
TTITLE1=Johnny Paycheck - SOmeone To Give My Love To
TTITLE2=Don Gibson - I Can't Stop Lovin You
TTITLE3=Lacy J. Dalton - Dream Baby
TTITLE4=Jack Greene - All The Time
TTITLE5=Ray Price - Make The World Go Away
TTITLE6=Jerry Wallace - In The Misty Moonlight
TTITLE7=Johnny Carver - Afternon Delight
TTITLE8=Deborah Allen - I Will Always Love You
TTITLE9=Conway Twitty - Hello Darlin'
TTITLE10=Freddie Fender - Before The Next Teardrop Falls
TTITLE11=Hank Locklin - Please Help Me, I'm Faling (In Love With You)
TTITLE12=Skeeter Davis - (I Can't Help You) I'm Falling Too
TTITLE13=Ned Miller - From A Jack To A King
EXTD=
EXTT0=
EXTT1=
EXTT2=
EXTT3=
EXTT4=
EXTT5=
EXTT6=
EXTT7=
EXTT8=
EXTT9=
EXTT10=
EXTT11=
EXTT12=
EXTT13=
PLAYORDER=
